<?xml version="1.0"?>
<svg version="1.1" xmlns="http://www.w3.org/2000/svg" width="1024" height="1024">
    <path d="M0 0 C5.73159056 4.23547685 11.04553972 8.82117797 16.1875 13.75 C16.86167969 14.37261719 17.53585938 14.99523437 18.23046875 15.63671875 C60.60374164 55.98013425 78.5953955 121.45570466 97.00909424 175.14556885 C114.59923621 226.4314222 134.29617002 278.7292399 172.1875 318.75 C172.63174316 319.22679199 173.07598633 319.70358398 173.53369141 320.19482422 C183.25332537 330.57465973 193.94046546 339.18493607 207.1875 344.75 C207.93902344 345.06839844 208.69054687 345.38679688 209.46484375 345.71484375 C220.67997122 349.76423254 234.20397701 349.0755116 245.01171875 344.0859375 C246.30450094 343.44228078 247.59215802 342.78824673 248.875 342.125 C249.57359131 341.77018555 250.27218262 341.41537109 250.99194336 341.04980469 C255.20230675 338.87764321 259.24635135 336.53812209 263.25 334 C316.61821852 300.52178174 381.18178157 288.652037 443.38253784 287.41860962 C492.95414899 286.39767091 543.28775151 279.16995206 588.5625 258.125 C589.31708496 257.77711426 590.07166992 257.42922852 590.84912109 257.07080078 C596.11158456 254.53588407 600.63301011 251.39758843 605.1875 247.75 C604.76892454 243.73167554 604.24366579 240.88030463 602.625 237.125 C600.11972655 230.69355174 600.07485748 223.57168518 601.99609375 216.97265625 C605.64439501 208.77975827 611.93621077 202.8475326 620.125 199.25 C632.20980273 195.51347325 644.26393482 196.93315976 655.82250977 201.61474609 C666.20678792 205.71492388 674.21287666 203.46810833 684.44723511 199.70330811 C704.75609347 192.29401004 724.09146879 188.87870919 745.74316406 189.66455078 C747.79401357 189.73624448 749.84639094 189.76222341 751.8984375 189.77734375 C769.17901825 190.30036375 785.81330713 196.46905869 801.8404541 202.43850708 C829.8972368 212.88629144 855.35432922 217.46493808 885.1875 212.75 C886.00089844 212.62641113 886.81429687 212.50282227 887.65234375 212.37548828 C905.72054229 209.573559 923.62297222 205.22319242 940.67163086 198.55688477 C944.83672397 197.22106403 948.89710767 196.83007804 953.1875 197.75 C956.01174288 199.94022918 957.60258603 201.58017207 959.1875 204.75 C960.4790561 217.21848388 956.67798524 227.91153573 949.1875 237.75 C946.93665066 240.41324811 944.62795242 242.9925222 942.24609375 245.5390625 C940.61295697 247.2930576 939.10329515 249.05603345 937.625 250.9375 C934.43602451 254.6170871 930.92536794 257.63792895 927.1875 260.75 C926.65785645 261.19730469 926.12821289 261.64460938 925.58251953 262.10546875 C887.63262919 294.08535976 843.4458253 317.28409318 799.203125 339.21484375 C782.92041657 347.28734314 766.86606365 355.53663845 751.1875 364.75 C749.92607178 365.48114014 749.92607178 365.48114014 748.63916016 366.22705078 C722.96952172 381.10879168 698.76603085 398.3984714 675.92431641 417.31738281 C673.42515595 419.37882132 670.89704629 421.40416707 668.375 423.4375 C663.76976644 427.20604698 659.35876466 431.15788304 654.98828125 435.1953125 C652.8363419 437.15816931 650.66071192 439.06653362 648.453125 440.96484375 C643.63684629 445.16682146 639.13216881 449.65874857 634.625 454.1875 C633.81353516 454.99509766 633.00207031 455.80269531 632.16601562 456.63476562 C627.29763928 461.51100053 622.66776172 466.51709341 618.1875 471.75 C617.26201619 472.79828931 616.33501531 473.84524192 615.40625 474.890625 C573.1622963 522.95681036 545.14323873 580.18069566 532.1875 642.75 C531.98769531 643.65105469 531.78789063 644.55210937 531.58203125 645.48046875 C531.10039748 648.25105509 530.90572107 650.93902618 530.8125 653.75 C530.76351562 654.760625 530.71453125 655.77125 530.6640625 656.8125 C531.40275383 660.95799165 532.80040969 662.28865587 536.1875 664.75 C539.04845703 665.51267952 541.8632979 665.6653471 544.8125 665.8125 C557.5617776 666.88732354 566.45705471 669.85116798 575.1875 679.75 C579.242535 685.95055616 580.5334972 691.48405886 580.1875 698.75 C577.72281295 701.21468705 576.31567367 701.00006619 572.95062256 701.04327393 C572.22232239 701.04236755 571.49402222 701.04146118 570.74365234 701.04052734 C569.59206131 701.05060318 569.59206131 701.05060318 568.41720581 701.06088257 C565.86921779 701.07993817 563.32149243 701.0837914 560.7734375 701.0859375 C559.00184012 701.09236332 557.23024381 701.09909152 555.45864868 701.10610962 C551.7378697 701.11810349 548.01718367 701.1217886 544.29638672 701.12060547 C539.54169016 701.12040287 534.78759533 701.14763355 530.033041 701.18214989 C526.36973367 701.20446099 522.70656975 701.20844162 519.04320145 701.20738602 C517.29140791 701.20973839 515.53961021 701.21854136 513.78788376 701.23405075 C511.32740909 701.25378376 508.86821284 701.24784352 506.40771484 701.23583984 C505.69156006 701.24707886 504.97540527 701.25831787 504.23754883 701.26989746 C497.82296242 701.1909064 492.8709612 698.86875977 487.8671875 694.91796875 C481.85728415 688.32268521 479.08060775 681.02220929 476.1875 672.75 C475.81882812 671.81800781 475.45015625 670.88601563 475.0703125 669.92578125 C471.51565197 660.48801977 470.2251761 650.47882305 468.64453125 640.56445312 C468.24684517 638.11545466 467.82036097 635.67504129 467.375 633.234375 C462.92322105 608.24908647 461.80286641 582.81047841 461.65380859 557.48193359 C461.52104191 543.6905032 459.96639699 532.74497746 449.9375 522.4375 C428.78883937 509.4599128 396.24214935 514.9820797 373.38818359 520.41552734 C349.91617215 526.23513643 329.61742149 535.1706106 314.3125 554.625 C281.49429487 595.33329625 231.48258839 622.14462114 179.5 627.9375 C178.40300781 628.03417969 177.30601562 628.13085938 176.17578125 628.23046875 C170.88299754 629.15065206 166.72198217 631.40568763 163.4140625 635.6953125 C158.28626977 644.28518184 155.1875 654.7451672 155.1875 664.75 C156.21488281 664.82476563 157.24226562 664.89953125 158.30078125 664.9765625 C169.99239822 666.0106305 179.50223784 668.85411555 187.68359375 677.84375 C192.50268513 683.95210479 194.76789588 688.8162962 194.55859375 696.68359375 C194.1875 698.75 194.1875 698.75 192.1875 700.75 C189.79144262 700.96383636 187.50935838 701.05408901 185.11083984 701.05639648 C184.38212677 701.06472 183.6534137 701.07304352 182.90261841 701.08161926 C180.4845042 701.10578453 178.06665981 701.11450181 175.6484375 701.12109375 C173.96652139 701.13005944 172.2846061 701.13918128 170.60269165 701.14845276 C167.07023175 701.16496601 163.53786684 701.17264634 160.00537109 701.17553711 C155.49267383 701.18090479 150.98087864 701.21850686 146.46843529 701.26428127 C142.99041552 701.29413139 139.51261011 701.30126248 136.03447342 701.30226326 C134.37197388 701.30645453 132.70947306 701.31884484 131.04710007 701.33978081 C115.3550931 701.52156871 115.3550931 701.52156871 109.55996704 697.10487366 C103.76312476 691.38233995 101.95997819 684.47816744 101.85864258 676.54931641 C101.86404053 675.76991699 101.86943848 674.99051758 101.875 674.1875 C101.87846436 673.34106934 101.88192871 672.49463867 101.88549805 671.62255859 C102.09392831 658.60775813 103.6901805 645.66680567 105.1875 632.75 C105.30496582 631.70392578 105.42243164 630.65785156 105.54345703 629.58007812 C110.16145529 589.11377606 110.16145529 589.11377606 122.25 577.5625 C125.4017419 575.07720573 128.82371568 573.29366054 132.375 571.4375 C155.01137201 559.60013115 171.38865218 539.67691648 179.4375 515.5 C183.22152638 502.02951292 184.4358603 488.49456649 185.34375 474.58642578 C185.85693395 467.40079887 186.83833787 460.48601898 188.3125 453.4375 C191.31675259 440.03089173 191.31675259 440.03089173 188.875 426.8125 C183.686015 419.61544888 174.60472912 417.45444932 166.4375 415.5 C143.00474508 409.8617956 106.93865759 394.13612867 93.1875 372.75 C93.26544443 369.74684711 93.6563168 368.31641474 95.71875 366.1171875 C96.69328125 365.37855469 96.69328125 365.37855469 97.6875 364.625 C106.88263268 356.96514082 115.1887451 347.07623572 116.38476562 334.71044922 C116.5883491 330.37631663 116.45708262 326.08129416 116.1875 321.75 C114.37166785 320.98251486 114.37166785 320.98251486 112.1875 320.75 C110.3622232 321.8545163 110.3622232 321.8545163 108.6875 323.625 C99.30567543 332.32924835 87.75996827 342.60695745 74.4375 343.5625 C69.44858456 343.21227528 66.61813482 341.70903384 63.13671875 338.1640625 C59.49831145 333.6579789 56.42028858 328.84533198 53.45849609 323.88037109 C52.55784911 322.37075803 51.64841847 320.86636955 50.73291016 319.36572266 C49.20294899 316.85658634 47.69246152 314.33669861 46.1875 311.8125 C45.70627686 311.02004883 45.22505371 310.22759766 44.72924805 309.41113281 C42.09919426 304.91818353 40.08235144 301.10600458 40.1875 295.75 C42.67752679 292.19194701 45.7700533 290.86715793 49.6875 289.1875 C60.61338461 283.88483962 68.78469107 275.65279069 74.1875 264.75 C74.56390625 264.11449219 74.9403125 263.47898437 75.328125 262.82421875 C76.44885656 260.1191803 76.38192578 257.91588274 76.3125 255 C76.29445312 254.01515625 76.27640625 253.0303125 76.2578125 252.015625 C76.23460937 251.26796875 76.21140625 250.5203125 76.1875 249.75 C70.7113644 250.22076766 67.25932387 251.589185 62.625 254.5 C53.1036373 260.20691568 41.59038712 266.30454289 30.1875 263.75 C23.88565229 260.6225905 21.57226018 255.02352224 19.1875 248.75 C17.87763522 244.67743597 16.73946708 240.56728925 15.625 236.4375 C15.33431641 235.38626953 15.04363281 234.33503906 14.74414062 233.25195312 C9.1875 213.02677573 9.1875 213.02677573 9.1875 208.75 C10.21488281 208.39808594 11.24226563 208.04617188 12.30078125 207.68359375 C27.66189406 202.27448941 40.92259999 195.31899049 48.375 180.14453125 C49.26626646 177.51786614 49.41591471 175.50525247 49.1875 172.75 C48.8575 172.42 48.5275 172.09 48.1875 171.75 C41.44405359 172.08717232 35.51342277 173.73010634 29.10546875 175.8125 C21.4819372 178.2618274 12.61576349 179.2971435 4.7890625 177.06640625 C-1.50973335 173.75197437 -4.08262004 167.68069999 -6.09326172 161.23120117 C-6.33061035 160.43302979 -6.56795898 159.6348584 -6.8125 158.8125 C-7.0717627 157.96985596 -7.33102539 157.12721191 -7.59814453 156.2590332 C-9.09217553 151.34788275 -10.43450508 146.41621433 -11.6875 141.4375 C-18.07512454 117.06504733 -28.6054169 94.48682574 -42.8125 73.75 C-44.65620596 71.04596572 -46.49575936 68.33934774 -48.32714844 65.62695312 C-49.52738885 63.85147938 -50.7358032 62.08149101 -51.95410156 60.31835938 C-60.93215738 47.08154854 -67.15941146 32.26429849 -64.34375 16.05078125 C-61.99280084 6.91286575 -56.37127874 0.222419 -48.8125 -5.25 C-33.592708 -14.07747936 -13.74090529 -9.46288446 0 0 Z " fill="black" transform="translate(64.8125,166.25)"></path>
    <path d="M0 0 C0.99 0.495 0.99 0.495 2 1 C1.46632813 1.88816406 0.93265625 2.77632812 0.3828125 3.69140625 C-15.97733241 31.49249795 -26.13829209 62.38202886 -32 94 C-32.21027832 95.08861328 -32.42055664 96.17722656 -32.63720703 97.29882812 C-39.5756693 134.5456802 -42.16498442 183.76837625 -26 219 C-21.38944252 225.18785345 -15.09081002 225.91379862 -7.84716797 226.98730469 C3.48847606 228.69418665 12.59329294 231.76131486 20 241 C24.38762557 247.38078474 25.36733353 252.40844042 25 260 C22.2281346 262.7718654 20.5726802 262.26529817 16.68945312 262.29052734 C16.0419812 262.29724457 15.39450928 262.30396179 14.72741699 262.31088257 C12.57861718 262.32993446 10.43012914 262.3337918 8.28125 262.3359375 C6.78348666 262.34236586 5.28572458 262.34909425 3.78796387 262.35610962 C0.64051408 262.36810412 -2.50682584 262.37178877 -5.65429688 262.37060547 C-9.66449796 262.37040338 -13.6739815 262.39757976 -17.68401337 262.43214989 C-20.78295032 262.45453602 -23.88171867 262.45843928 -26.98072815 262.45738602 C-28.45734606 262.45972924 -29.93396953 262.46847987 -31.4105072 262.48405075 C-43.80845438 262.60243308 -53.02044954 260.59194688 -62.62890625 252.4375 C-66.57817892 248.37762167 -69.30341348 243.77590475 -72.00244141 238.8203125 C-72.99617147 237.00698618 -74.03152655 235.22303155 -75.07421875 233.4375 C-87.17128025 212.20793938 -94.98641834 188.31043315 -102.07324219 165.03466797 C-102.91813615 162.26806312 -103.78652042 159.51028843 -104.6640625 156.75390625 C-105.1314671 155.25299559 -105.5977243 153.75172682 -106.0625 152.25 C-106.44535156 151.01765625 -106.82820312 149.7853125 -107.22265625 148.515625 C-109.48599989 138.27939747 -106.03794831 132.05846981 -101.25 123.1875 C-100.56041177 121.8852919 -99.87120615 120.58288113 -99.18237305 119.28027344 C-93.62797805 108.85625518 -87.64007659 98.77248497 -81 89 C-80.27997803 87.93531494 -80.27997803 87.93531494 -79.54541016 86.84912109 C-68.36437625 70.42266387 -56.29620687 54.93846589 -42.52636719 40.60742188 C-40.40089553 38.36908128 -38.35627152 36.06288022 -36.3125 33.75 C-29.05083007 25.63798582 -21.3266431 18.01570102 -13 11 C-11.87217245 10.04323201 -10.74458968 9.08617544 -9.6171875 8.12890625 C-6.41618669 5.41364021 -3.20932436 2.7054213 0 0 Z " fill="black" transform="translate(746,605)"></path>
    <path d="M0 0 C0.20186987 6.36520936 -0.32495946 11.80434457 -2 17.9375 C-2.22002686 18.75307373 -2.44005371 19.56864746 -2.66674805 20.40893555 C-9.92528649 45.97996164 -24.64275626 66.46274119 -42.625 85.53222656 C-44.6771601 87.72284917 -46.6862494 89.95038773 -48.6875 92.1875 C-49.31011719 92.88230469 -49.93273437 93.57710937 -50.57421875 94.29296875 C-53.29877826 97.55497561 -53.45950165 100.28937181 -53.40625 104.4296875 C-52.20410224 112.0355839 -46.06409243 119.46883799 -40 124 C-33.57592983 128.19977941 -27.21173642 128.85983129 -19.6875 129.5 C-7.10840079 130.5819092 4.6990197 132.89839001 13.49609375 142.66015625 C18.16638502 148.74400748 20.77473059 155.25269408 20 163 C17.5513115 165.4486885 16.1920578 165.2496029 12.84880066 165.29327393 C12.13299332 165.29236755 11.41718597 165.29146118 10.6796875 165.29052734 C9.9249263 165.29724457 9.1701651 165.30396179 8.39253235 165.31088257 C5.88662187 165.32994218 3.38097855 165.333792 0.875 165.3359375 C-0.86938589 165.34236447 -2.61377068 165.34909276 -4.3581543 165.35610962 C-8.02346287 165.36810548 -11.68867708 165.37178854 -15.35400391 165.37060547 C-20.03003814 165.37040319 -24.70545836 165.3976001 -29.38134766 165.43214989 C-32.9898348 165.4545036 -36.59817681 165.45844028 -40.20672607 165.45738602 C-41.92895607 165.45973329 -43.6511906 165.46850719 -45.37335205 165.48405075 C-57.19680096 165.58069012 -66.72714454 164.72344329 -76.4375 157.3125 C-77.35015625 156.61769531 -78.2628125 155.92289063 -79.203125 155.20703125 C-80.12609375 154.47871094 -81.0490625 153.75039063 -82 153 C-82.94359375 152.26136719 -83.8871875 151.52273438 -84.859375 150.76171875 C-89.95429212 146.68719249 -94.69687978 142.45068104 -99.234375 137.765625 C-101.14352132 135.79726522 -101.14352132 135.79726522 -104.0625 133.5 C-111.85483124 126.86822873 -121.23869852 117.23589781 -122.21484375 106.67578125 C-122.45879492 99.99151919 -121.26822301 93.96804428 -119.6953125 87.4921875 C-119.02271933 84.11410717 -118.92876628 81.11985013 -118.9375 77.6875 C-118.60481475 72.67726016 -117.26199377 70.62103404 -113.5625 67.25 C-111.73564707 65.79828142 -109.88151885 64.38013234 -108 63 C-95.2136953 53.36041153 -83.43219052 41.8990207 -73.703125 29.16796875 C-67.56251509 21.35136669 -60.98257311 16.19022904 -52 12 C-51.10925781 11.57074219 -50.21851563 11.14148438 -49.30078125 10.69921875 C-34.25016565 3.91909485 -16.51993041 -0.52731846 0 0 Z " fill="black" transform="translate(470,702)"></path>
    <path d="M0 0 C4.83831756 2.3295603 7.6006196 5.20123921 10 10 C10.94742987 15.32263972 10.01777172 19.47334242 7 24 C3.31103467 27.72928189 0.07318569 29.7154451 -5.1875 30.4375 C-10.41621791 29.83748319 -13.349638 27.70778343 -17 24 C-19.96198652 19.24287014 -20.42956712 15.48613405 -19.57421875 10.078125 C-18.44565217 5.99378879 -16.00153745 3.85425253 -12.875 1.1875 C-8.56337023 -0.59339056 -4.59609986 -0.65658569 0 0 Z " fill="white" transform="translate(833,401)"></path>
</svg>