<svg width="102" height="102" viewBox="0 0 102 102" fill="none" xmlns="http://www.w3.org/2000/svg">
<path d="M101 101H1V1" stroke="black" stroke-linecap="round" stroke-linejoin="round"/>
<path d="M82.6667 84.6667H32.6667M82.6667 84.6667H66M82.6667 84.6667V38.8333H66V84.6667M32.6667 84.6667H49.3333M32.6667 84.6667V63.8333H49.3333V84.6667M61.8333 22.1667H78.5M61.8333 22.1667C61.8333 24.4708 59.9708 26.3333 57.6667 26.3333C55.3625 26.3333 53.5 24.4708 53.5 22.1667C53.5 19.8625 55.3625 18 57.6667 18C59.9708 18 61.8333 19.8625 61.8333 22.1667ZM78.5 22.1667C78.5 24.4708 80.3625 26.3333 82.6667 26.3333C84.9708 26.3333 86.8333 24.4708 86.8333 22.1667C86.8333 19.8625 84.9708 18 82.6667 18C80.3625 18 78.5 19.8625 78.5 22.1667ZM35.6125 44.2208L54.7208 25.1125M16 55.5L28.9417 49.0292M49.3333 84.6667H66M49.3333 84.6667V51.3333H66V84.6667M36.8333 47.1667C36.8333 49.4708 34.9708 51.3333 32.6667 51.3333C30.3625 51.3333 28.5 49.4708 28.5 47.1667C28.5 44.8625 30.3625 43 32.6667 43C34.9708 43 36.8333 44.8625 36.8333 47.1667Z" stroke="black" stroke-linecap="round" stroke-linejoin="round"/>
</svg>
