<svg width="102" height="102" viewBox="0 0 102 102" fill="none" xmlns="http://www.w3.org/2000/svg">
<path d="M101 101H1V1" stroke="black" stroke-linecap="round" stroke-linejoin="round"/>
<path d="M49.8893 63.332H72.666L71.4693 58.542C71.166 57.3353 70.426 56.282 69.3927 55.592L67.0693 54.0453C66.3793 53.5887 65.8893 52.8853 65.686 52.082L64.646 47.912M57.3567 47.9087L56.3133 52.082C56.11 52.8853 55.62 53.5887 54.9267 54.0453L52.6067 55.592C51.5733 56.282 50.8333 57.3353 50.53 58.5387L49.57 62.3787M31.6 49.131L31.2467 51.6043C31.0933 52.6843 30.4167 53.6243 29.4367 54.1143L26.8033 55.431C25.22 56.221 24.02 57.6077 23.46 59.2843L21 66.6643H51L48.54 59.2843C47.98 57.6077 46.7767 56.221 45.1967 55.431L42.5633 54.1143C41.5833 53.6243 40.9067 52.6843 40.7533 51.6043L40.3967 49.121M71.8327 59.9987H87.666L86.3693 54.8187C86.136 53.8753 85.4993 53.082 84.6293 52.6453L83.376 52.0187C82.926 51.7953 82.6027 51.382 82.4927 50.892L81.9527 48.4553M76.7123 48.4573L76.1723 50.8907C76.0623 51.3807 75.739 51.794 75.289 52.0207L74.0357 52.6473C73.169 53.0807 72.529 53.874 72.2957 54.8207L71.4123 58.3407M62.998 49.3623C61.8047 50.2157 60.1947 50.2157 59.0013 49.3623C56.0713 47.2723 54.3313 43.8923 54.3313 40.2957V39.999C54.3313 36.3157 57.318 33.3323 60.998 33.3323C64.6813 33.3323 67.6647 36.3157 67.6647 39.999V40.2957C67.6647 43.8923 65.928 47.2723 62.998 49.3623ZM38.4993 50.84C37.016 51.9433 34.9827 51.9433 33.4993 50.84C29.8293 48.1133 27.666 43.8133 27.666 39.24V38.3333C27.666 33.73 31.396 30 35.9993 30C40.6027 30 44.3327 33.73 44.3327 38.3333V39.24C44.3327 43.8133 42.1693 48.1133 38.4993 50.84ZM80.8333 49.4893C79.9467 50.166 78.7167 50.166 77.8333 49.4893C75.6267 47.8093 74.3333 45.196 74.3333 42.4227V41.666C74.3333 38.9027 76.5733 36.666 79.3333 36.666C82.0933 36.666 84.3333 38.9027 84.3333 41.666V42.4227C84.3333 45.196 83.0367 47.8093 80.8333 49.4893Z" stroke="black" stroke-linecap="round" stroke-linejoin="round"/>
</svg>
