<svg width="102" height="102" viewBox="0 0 102 102" fill="none" xmlns="http://www.w3.org/2000/svg">
<path d="M101 101H1V1" stroke="black" stroke-linecap="round" stroke-linejoin="round"/>
<path d="M50.5 29.6667C45.9 29.6667 42.1667 25.9333 42.1667 21.3333C42.1667 16.7333 45.9 13 50.5 13C55.1 13 58.8333 16.7333 58.8333 21.3333C58.8333 25.9333 55.1 29.6667 50.5 29.6667ZM50.5 29.6667V42.1667M50.5 42.1667C45.9 42.1667 42.1667 45.9 42.1667 50.5C42.1667 55.1 45.9 58.8333 50.5 58.8333C55.1 58.8333 58.8333 55.1 58.8333 50.5C58.8333 45.9 55.1 42.1667 50.5 42.1667ZM29.5854 47.5133L42.2479 49.3217M71.4146 47.5133L58.7521 49.3217M66.4912 72.8838L55.3412 57.2837M37.9675 72.4321L46.3675 57.7362M21.3333 54.6667C16.7333 54.6667 13 50.9333 13 46.3333C13 41.7333 16.7333 38 21.3333 38C25.9333 38 29.6667 41.7333 29.6667 46.3333C29.6667 50.9333 25.9333 54.6667 21.3333 54.6667ZM79.6667 54.6667C75.0667 54.6667 71.3333 50.9333 71.3333 46.3333C71.3333 41.7333 75.0667 38 79.6667 38C84.2667 38 88 41.7333 88 46.3333C88 50.9333 84.2667 54.6667 79.6667 54.6667ZM71.3333 88C66.7333 88 63 84.2667 63 79.6667C63 75.0667 66.7333 71.3333 71.3333 71.3333C75.9333 71.3333 79.6667 75.0667 79.6667 79.6667C79.6667 84.2667 75.9333 88 71.3333 88ZM33.8333 88C29.2333 88 25.5 84.2667 25.5 79.6667C25.5 75.0667 29.2333 71.3333 33.8333 71.3333C38.4333 71.3333 42.1667 75.0667 42.1667 79.6667C42.1667 84.2667 38.4333 88 33.8333 88Z" stroke="black" stroke-linecap="round" stroke-linejoin="round"/>
</svg>
